<?xml version="1.0" encoding="UTF-8"?>
<svg width="14px" height="16px" viewBox="0 0 14 16" version="1.1" xmlns="http://www.w3.org/2000/svg" xmlns:xlink="http://www.w3.org/1999/xlink">
    <!-- Generator: Sketch 42 (36781) - http://www.bohemiancoding.com/sketch -->
    <title>icons/white/paypal</title>
    <desc>Created with Sketch.</desc>
    <defs></defs>
    <g id="Symbols" stroke="none" stroke-width="1" fill="none" fill-rule="evenodd">
        <g id="icons/white/paypal" stroke="#000000">
            <g id="Group-16-Copy">
                <path d="M12.4479463,4.08689082 C12.4330608,4.18023957 12.4160598,4.27571422 12.3969283,4.37375342 C11.7396009,7.68661258 9.49075387,8.83112522 6.61859076,8.83112522 L5.15620017,8.83112522 C4.80495438,8.83112522 4.50897075,9.08147339 4.45423517,9.42160555 L3.70550577,14.0828687 L3.49348149,15.4041391 C3.45787927,15.6274138 3.63323703,15.8287415 3.86279817,15.8287415 L6.45651457,15.8287415 C6.76366034,15.8287415 7.02457201,15.6096585 7.07292732,15.312352 L7.09843545,15.1829885 L7.58678334,12.1408574 L7.61813395,11.9739174 C7.66595702,11.6755516 7.92740093,11.456465 8.23454672,11.456465 L8.62246292,11.456465 C11.135409,11.456465 13.1026127,10.4549468 13.6775791,7.5567494 C13.9177665,6.34608886 13.7934212,5.33512875 13.1578806,4.62416254 C12.9655163,4.40976822 12.7269232,4.23188743 12.4479463,4.08689082 Z" id="Fill-10"></path>
                <path d="M5.3092428,4.10358591 C5.34165767,3.89856796 5.47556881,3.73112741 5.65571221,3.64665542 C5.73807885,3.6080169 5.82894506,3.58663227 5.92512539,3.58663227 L9.83190734,3.58663227 C10.294751,3.58663227 10.7267707,3.61639312 11.1210594,3.67898175 C11.2337161,3.69667608 11.3431817,3.71705966 11.4499901,3.74000507 C11.5562703,3.76345193 11.6598913,3.78952429 11.7603196,3.81822402 C11.810275,3.8328551 11.8596929,3.84798488 11.9080462,3.8631174 C12.1020034,3.92620385 12.2821468,4.0007971 12.4484729,4.08689357 C12.6440226,2.86260119 12.4468801,2.02908777 11.772546,1.27429114 C11.029129,0.443277219 9.68736976,0.0875756903 7.9704477,0.0875756903 L2.98600574,0.0875756903 C2.63528837,0.0875756903 2.3361174,0.3379234 2.28191027,0.678557012 L0.205771242,13.5966806 C0.164851222,13.8522825 0.365720711,14.0828705 0.628227053,14.0828705 L3.70550947,14.0828705 L4.47815232,9.270861 L5.3092428,4.10358591 Z" id="Fill-12"></path>
            </g>
        </g>
    </g>
</svg>