<?xml version="1.0" encoding="UTF-8"?>
<svg width="15px" height="17px" viewBox="0 0 15 17" version="1.1" xmlns="http://www.w3.org/2000/svg" xmlns:xlink="http://www.w3.org/1999/xlink">
    <!-- Generator: Sketch 42 (36781) - http://www.bohemiancoding.com/sketch -->
    <title>icons/dark/delete</title>
    <desc>Created with Sketch.</desc>
    <defs></defs>
    <g id="Symbols" stroke="none" stroke-width="1" fill="none" fill-rule="evenodd" stroke-linejoin="round">
        <g id="icons/dark/delete" stroke="#FFFFFF">
            <g id="Group-39">
                <path d="M14.4923988,2.93708067 C14.4923971,3.57221202 13.8007589,4.11433086 12.417484,4.56343631 C11.034209,5.0125418 9.36444685,5.23709497 7.40820075,5.23709582 C5.45195312,5.23709497 3.78219255,5.0125418 2.39891686,4.56343631 C1.01564111,4.11433086 0.324003238,3.57221202 0.324003646,2.93708067 C0.324003238,2.3019489 1.01564111,1.75983006 2.39891686,1.31072416 C3.78219255,0.861618659 5.45195312,0.637065905 7.40820075,0.637066313 C9.36444685,0.637065905 11.034209,0.861618659 12.417484,1.31072416 C13.8007589,1.75983006 14.4923971,2.3019489 14.4923988,2.93708067 Z" id="Stroke-2"></path>
                <path d="M13.90679,3.86134591 L11.882745,14.8672391 C10.4988686,17.0445988 4.31754109,17.0445988 2.9336647,14.8672391 L0.909618898,3.86134591" id="Stroke-3"></path>
            </g>
        </g>
    </g>
</svg>